<?xml version="1.0" encoding="UTF-8" standalone="no"?>
<svg
   xmlns:dc="http://purl.org/dc/elements/1.1/"
   xmlns:cc="http://creativecommons.org/ns#"
   xmlns:rdf="http://www.w3.org/1999/02/22-rdf-syntax-ns#"
   xmlns:svg="http://www.w3.org/2000/svg"
   xmlns="http://www.w3.org/2000/svg"
   xmlns:sodipodi="http://sodipodi.sourceforge.net/DTD/sodipodi-0.dtd"
   xmlns:inkscape="http://www.inkscape.org/namespaces/inkscape"
   width="1024"
   height="1024"
   viewBox="0 0 270.93333 270.93333"
   version="1.1"
   id="svg8"
   inkscape:version="1.0.1 (3bc2e813f5, 2020-09-07)"
   sodipodi:docname="foxlogo_eyes_alpha.svg"
   inkscape:export-filename="C:\Users\Jack\Pictures\Branding\foxlogo_eyes_alpha.png"
   inkscape:export-xdpi="96"
   inkscape:export-ydpi="96">
  <defs
     id="defs2">
    <inkscape:path-effect
       effect="mirror_symmetry"
       start_point="147.22491,219.70634"
       end_point="147.22491,229.57368"
       center_point="147.22491,224.64001"
       id="path-effect866"
       is_visible="true"
       lpeversion="1"
       mode="vertical"
       discard_orig_path="false"
       fuse_paths="false"
       oposite_fuse="false"
       split_items="false" />
    <inkscape:path-effect
       effect="mirror_symmetry"
       start_point="212.5036,40.127565"
       end_point="212.5036,120.39457"
       center_point="212.5036,80.261067"
       id="path-effect864"
       is_visible="true"
       lpeversion="1"
       mode="vertical"
       discard_orig_path="false"
       fuse_paths="false"
       oposite_fuse="false"
       split_items="false" />
    <inkscape:path-effect
       effect="mirror_symmetry"
       start_point="212.5036,40.127565"
       end_point="212.5036,120.39457"
       center_point="212.5036,80.261067"
       id="path-effect859"
       is_visible="true"
       lpeversion="1"
       mode="vertical"
       discard_orig_path="false"
       fuse_paths="false"
       oposite_fuse="false"
       split_items="false" />
    <inkscape:path-effect
       effect="mirror_symmetry"
       start_point="173.98556,245.62713"
       end_point="212.5036,245.62713"
       center_point="212.5036,142.87735"
       id="path-effect855"
       is_visible="true"
       lpeversion="1"
       mode="vertical"
       discard_orig_path="false"
       fuse_paths="false"
       oposite_fuse="false"
       split_items="false" />
    <inkscape:path-effect
       effect="mirror_symmetry"
       start_point="147.63131,175.8272"
       end_point="167.09376,191.14439"
       center_point="167.09376,175.8272"
       id="path-effect853"
       is_visible="true"
       lpeversion="1"
       mode="vertical"
       discard_orig_path="false"
       fuse_paths="false"
       oposite_fuse="false"
       split_items="false" />
  </defs>
  <sodipodi:namedview
     id="base"
     pagecolor="#0d1b1e"
     bordercolor="#666666"
     borderopacity="1.0"
     inkscape:pageopacity="0"
     inkscape:pageshadow="2"
     inkscape:zoom="0.6579425"
     inkscape:cx="470.05646"
     inkscape:cy="442.56047"
     inkscape:document-units="px"
     inkscape:current-layer="layer2"
     inkscape:document-rotation="0"
     showgrid="false"
     inkscape:snap-smooth-nodes="true"
     inkscape:snap-object-midpoints="true"
     inkscape:snap-intersection-paths="true"
     inkscape:object-paths="true"
     inkscape:object-nodes="true"
     inkscape:snap-nodes="true"
     inkscape:snap-midpoints="true"
     units="px"
     showguides="true"
     inkscape:guide-bbox="true"
     inkscape:window-width="2560"
     inkscape:window-height="1377"
     inkscape:window-x="-8"
     inkscape:window-y="-8"
     inkscape:window-maximized="1"
     inkscape:pagecheckerboard="false" />
  <metadata
     id="metadata5">
    <rdf:RDF>
      <cc:Work
         rdf:about="">
        <dc:format>image/svg+xml</dc:format>
        <dc:type
           rdf:resource="http://purl.org/dc/dcmitype/StillImage" />
        <dc:title></dc:title>
      </cc:Work>
    </rdf:RDF>
  </metadata>
  <g
     inkscape:label="Layer 1"
     inkscape:groupmode="layer"
     id="layer1"
     style="display:none">
    <path
       style="fill:none;stroke:#000000;stroke-width:0.265;stroke-linecap:butt;stroke-linejoin:miter;stroke-miterlimit:4;stroke-dasharray:none;stroke-opacity:1"
       d="m 96.528409,178.23938 9.260411,-4.91369 5.29167,-24.37946 13.22917,-9.82738 7.55952,-11.1503 -6.42559,2.07887 5.10267,-7.9375 -4.53571,1.70089 6.61458,-7.9375 2.26786,-42.522326 -26.26934,22.678572 -1.13393,4.535714 -3.75507,-3.60407 -2.29255,4.54901 -4.913691,-6.047621"
       id="path833"
       sodipodi:nodetypes="ccccccccccccccc" />
    <path
       id="path854"
       style="fill:none;stroke:#000000;stroke-width:0.910866;stroke-miterlimit:4;stroke-dasharray:none;stroke-opacity:1"
       d="m 219.30859,413.83594 c -8.41458,19.67209 -12.75328,40.84601 -12.7539,62.24218 5.3e-4,66.34686 41.38038,125.65207 103.65039,148.55079 m 109.2539,0 c 62.27001,-22.89871 103.64986,-82.20393 103.6504,-148.55079 -3.6e-4,-21.39683 -4.33906,-42.57145 -12.75391,-62.24414 m -87.31055,-84.93945 c -18.5328,-7.3299 -38.28321,-11.09377 -58.21289,-11.09375 h -0.0117 c -19.92574,0.001 -39.67203,3.7653 -58.20117,11.09375 v 0.002"
       transform="scale(0.26458333)"
       sodipodi:nodetypes="cccccccsscc" />
    <path
       style="display:inline;fill:none;stroke:#000000;stroke-width:0.264999;stroke-linecap:butt;stroke-linejoin:miter;stroke-miterlimit:4;stroke-dasharray:none;stroke-opacity:1"
       d="m 96.528409,178.23938 -9.2604,-4.91369 -5.29167,-24.37946 -13.22917,-9.82738 -7.55952,-11.1503 6.42559,2.07887 -5.10267,-7.9375 4.53571,1.70089 -6.61458,-7.9375 -2.267863,-42.522327 26.269343,22.678572 1.13393,4.535715 3.75507,-3.604071 2.29255,4.549011 4.91368,-6.047621"
       id="path833-7"
       sodipodi:nodetypes="ccccccccccccccc" />
  </g>
  <g
     inkscape:groupmode="layer"
     id="layer5"
     inkscape:label="Layer 3"
     style="display:none">
    <path
       id="path849"
       style="fill:none;fill-opacity:1;stroke:#0d735f;stroke-width:6.35;stroke-miterlimit:4;stroke-dasharray:none;stroke-opacity:1"
       d="M 223.35782,135.46666 A 87.891158,87.891158 0 0 1 135.46666,223.35782 87.891158,87.891158 0 0 1 47.575501,135.46666 87.891158,87.891158 0 0 1 135.46666,47.575499 87.891158,87.891158 0 0 1 223.35782,135.46666 Z" />
    <path
       id="path913"
       style="display:inline;fill:none;fill-opacity:1;stroke:#ffffff;stroke-width:0.529167;stroke-linecap:butt;stroke-linejoin:miter;stroke-miterlimit:4;stroke-dasharray:none;stroke-opacity:1"
       sodipodi:type="inkscape:offset"
       inkscape:radius="7.1742644"
       inkscape:original="M 58.429688 40.126953 L 62.984375 120.39453 L 76.267578 136.33398 L 67.158203 132.91602 L 77.40625 148.85547 L 64.501953 144.68164 L 79.681641 167.07227 L 106.24609 186.80664 L 116.87305 235.75977 L 135.4668 245.62695 L 154.0625 235.75977 L 164.6875 186.80664 L 191.25195 167.07227 L 206.43164 144.68164 L 193.5293 148.85547 L 203.77539 132.91602 L 194.66797 136.33398 L 207.94922 120.39453 L 212.50391 40.126953 L 159.75391 80.546875 L 157.47852 89.65625 L 149.9375 82.417969 L 145.33398 91.552734 L 135.4668 79.408203 L 125.59961 91.552734 L 120.99609 82.417969 L 113.45508 89.65625 L 111.17969 80.546875 L 58.429688 40.126953 z "
       d="m 58.390625,32.953125 a 7.1749819,7.1749819 0 0 0 -7.123047,7.580078 l 4.554688,80.267577 a 7.1749819,7.1749819 0 0 0 1.65039,4.1875 l 3.533203,4.24024 a 7.1749819,7.1749819 0 0 0 0.117188,7.5664 L 61.898438,138 a 7.1749819,7.1749819 0 0 0 -3.333985,10.70703 l 15.179688,22.39063 a 7.1749819,7.1749819 0 0 0 1.660156,1.73437 l 24.402344,18.12695 10.054689,46.32227 a 7.1749819,7.1749819 0 0 0 3.64844,4.81641 l 18.59375,9.86718 a 7.1749819,7.1749819 0 0 0 6.72656,0 l 18.5957,-9.86718 a 7.1749819,7.1749819 0 0 0 3.64844,-4.81641 l 10.05273,-46.32227 24.40235,-18.12695 a 7.1749819,7.1749819 0 0 0 1.66015,-1.73437 l 15.17969,-22.39063 a 7.1749819,7.1749819 0 0 0 -3.33203,-10.70898 l 0.77344,-1.20313 a 7.1749819,7.1749819 0 0 0 0.11523,-7.5664 l 3.53516,-4.24219 a 7.1749819,7.1749819 0 0 0 1.65039,-4.18555 l 4.55469,-80.267577 a 7.1749819,7.1749819 0 0 0 -11.5254,-6.101562 l -52.75,40.419921 a 7.1749819,7.1749819 0 0 0 -1.50781,1.576172 7.1749819,7.1749819 0 0 0 -9.93554,2.041016 l -2.91211,-3.583984 a 7.1749819,7.1749819 0 0 0 -11.13672,0 l -2.91406,3.585937 a 7.1749819,7.1749819 0 0 0 -9.9336,-2.044922 7.1749819,7.1749819 0 0 0 -1.50781,-1.574219 L 62.792969,34.431641 a 7.1749819,7.1749819 0 0 0 -4.402344,-1.478516 z"
       transform="translate(-4.4877342e-4,-7.4069097)" />
  </g>
  <g
     inkscape:groupmode="layer"
     id="layer2"
     inkscape:label="Layer 2"
     style="display:inline">
    <path
       id="path833-2"
       style="display:inline;fill:#1d8654;fill-opacity:1;stroke:none;stroke-width:4.25032;stroke-linecap:butt;stroke-linejoin:miter;stroke-miterlimit:4;stroke-dasharray:none;stroke-opacity:1"
       d="m 135.46752,238.38866 18.59444,-9.86734 10.62637,-41.71534 26.56423,-19.73469 15.17882,-22.38958 -12.90174,4.17465 10.24516,-15.93956 -9.10662,3.41732 13.28126,-15.93955 4.55416,-80.267004 -52.74894,40.419812 -2.27708,9.108318 -7.53921,-7.237981 -4.60521,9.135547 -9.86564,-12.144424 z m -0.002,0 -18.59444,-9.86734 -10.62637,-41.71534 -26.56423,-19.73469 -15.17882,-22.38958 12.90174,4.17465 -10.24516,-15.93956 9.10662,3.41732 -13.28126,-15.93955 -4.55416,-80.267004 52.74894,40.419812 2.27708,9.108318 7.53921,-7.237981 4.60521,9.135547 9.86564,-12.144424 z"
       sodipodi:nodetypes="cccccccccccccccc"
       inkscape:path-effect="#path-effect855"
       inkscape:original-d="m 135.46752,238.38866 18.59444,-9.86734 10.62637,-41.71534 26.56423,-19.73469 15.17882,-22.38958 -12.90174,4.17465 10.24516,-15.93956 -9.10662,3.41732 13.28126,-15.93955 4.55416,-80.267004 -52.74894,40.419812 -2.27708,9.108318 -7.53921,-7.237981 -4.60521,9.135547 -9.86564,-12.144424 z" />
    <path
       id="path899"
       style="color:#000000;font-style:normal;font-variant:normal;font-weight:normal;font-stretch:normal;font-size:medium;line-height:normal;font-family:sans-serif;font-variant-ligatures:normal;font-variant-position:normal;font-variant-caps:normal;font-variant-numeric:normal;font-variant-alternates:normal;font-variant-east-asian:normal;font-feature-settings:normal;font-variation-settings:normal;text-indent:0;text-align:start;text-decoration:none;text-decoration-line:none;text-decoration-style:solid;text-decoration-color:#000000;letter-spacing:normal;word-spacing:normal;text-transform:none;writing-mode:lr-tb;direction:ltr;text-orientation:mixed;dominant-baseline:auto;baseline-shift:baseline;text-anchor:start;white-space:normal;shape-padding:0;shape-margin:0;inline-size:0;clip-rule:nonzero;display:inline;overflow:visible;visibility:visible;opacity:1;isolation:auto;mix-blend-mode:normal;color-interpolation:sRGB;color-interpolation-filters:linearRGB;solid-color:#000000;solid-opacity:1;vector-effect:none;fill:#0d735f;fill-opacity:1;fill-rule:nonzero;stroke:none;stroke-width:24;stroke-linecap:butt;stroke-linejoin:miter;stroke-miterlimit:4;stroke-dasharray:none;stroke-dashoffset:0;stroke-opacity:1;color-rendering:auto;image-rendering:auto;shape-rendering:auto;text-rendering:auto;enable-background:accumulate;stop-color:#000000;stop-opacity:1"
       d="M 659.34961 227.69727 L 680.14062 211.76562 C 630.39507 183.82241 573.06434 167.81249 512 167.8125 C 450.93532 167.8125 393.60708 183.82406 343.86133 211.76758 L 364.65039 227.69727 C 408.75635 204.81333 458.83153 191.81055 512 191.81055 C 565.16847 191.81054 615.24365 204.81333 659.34961 227.69727 z "
       transform="scale(0.26458333)" />
    <path
       id="path946"
       style="color:#000000;font-style:normal;font-variant:normal;font-weight:normal;font-stretch:normal;font-size:medium;line-height:normal;font-family:sans-serif;font-variant-ligatures:normal;font-variant-position:normal;font-variant-caps:normal;font-variant-numeric:normal;font-variant-alternates:normal;font-variant-east-asian:normal;font-feature-settings:normal;font-variation-settings:normal;text-indent:0;text-align:start;text-decoration:none;text-decoration-line:none;text-decoration-style:solid;text-decoration-color:#000000;letter-spacing:normal;word-spacing:normal;text-transform:none;writing-mode:lr-tb;direction:ltr;text-orientation:mixed;dominant-baseline:auto;baseline-shift:baseline;text-anchor:start;white-space:normal;shape-padding:0;shape-margin:0;inline-size:0;clip-rule:nonzero;display:inline;overflow:visible;visibility:visible;opacity:1;isolation:auto;mix-blend-mode:normal;color-interpolation:sRGB;color-interpolation-filters:linearRGB;solid-color:#000000;solid-opacity:1;vector-effect:none;fill:#0d735f;fill-opacity:1;fill-rule:nonzero;stroke:none;stroke-width:24;stroke-linecap:butt;stroke-linejoin:miter;stroke-miterlimit:4;stroke-dasharray:none;stroke-dashoffset:0;stroke-opacity:1;color-rendering:auto;image-rendering:auto;shape-rendering:auto;text-rendering:auto;enable-background:accumulate;stop-color:#000000;stop-opacity:1"
       d="M 627.47656 810.67773 L 621.49023 838.26758 C 757.81509 792.46817 856.18945 663.66219 856.18945 512 C 856.18946 455.84761 842.62106 402.86872 818.72461 356.01953 L 815.64258 410.33203 C 826.31992 442.27966 832.18946 476.43769 832.18945 512 C 832.18945 648.23671 747.28214 764.38571 627.47656 810.67773 z "
       transform="scale(0.26458333)" />
    <path
       id="path942"
       style="color:#000000;font-style:normal;font-variant:normal;font-weight:normal;font-stretch:normal;font-size:medium;line-height:normal;font-family:sans-serif;font-variant-ligatures:normal;font-variant-position:normal;font-variant-caps:normal;font-variant-numeric:normal;font-variant-alternates:normal;font-variant-east-asian:normal;font-feature-settings:normal;font-variation-settings:normal;text-indent:0;text-align:start;text-decoration:none;text-decoration-line:none;text-decoration-style:solid;text-decoration-color:#000000;letter-spacing:normal;word-spacing:normal;text-transform:none;writing-mode:lr-tb;direction:ltr;text-orientation:mixed;dominant-baseline:auto;baseline-shift:baseline;text-anchor:start;white-space:normal;shape-padding:0;shape-margin:0;inline-size:0;clip-rule:nonzero;display:inline;overflow:visible;visibility:visible;opacity:1;isolation:auto;mix-blend-mode:normal;color-interpolation:sRGB;color-interpolation-filters:linearRGB;solid-color:#000000;solid-opacity:1;vector-effect:none;fill:#0d735f;fill-opacity:1;fill-rule:nonzero;stroke:none;stroke-width:24;stroke-linecap:butt;stroke-linejoin:miter;stroke-miterlimit:4;stroke-dasharray:none;stroke-dashoffset:0;stroke-opacity:1;color-rendering:auto;image-rendering:auto;shape-rendering:auto;text-rendering:auto;enable-background:accumulate;stop-color:#000000;stop-opacity:1"
       d="M 205.27734 356.01562 C 181.37965 402.86576 167.8125 455.84607 167.8125 512 C 167.81252 663.66436 266.18968 792.47184 402.51758 838.26953 L 396.5293 810.67969 C 276.72067 764.38914 191.81056 648.23886 191.81055 512 C 191.81055 476.43691 197.68158 442.2783 208.35938 410.33008 L 205.27734 356.01562 z "
       transform="scale(0.26458333)" />
    <path
       style="fill:#15ee89;fill-opacity:1;stroke:none;stroke-width:0.341267px;stroke-linecap:butt;stroke-linejoin:miter;stroke-opacity:1"
       d="m 175.33757,147.84269 -27.4994,15.88988 0.36185,22.29345 19.16194,-13.09402 z m -79.74181,0 27.4994,15.88988 -0.36185,22.29345 -19.16194,-13.09402 z"
       id="path845"
       sodipodi:nodetypes="ccccc"
       inkscape:original-d="m 175.33757,147.84269 -27.4994,15.88988 0.36185,22.29345 19.16194,-13.09402 z"
       inkscape:path-effect="#path-effect853" />
    <path
       style="fill:#15ee89;fill-opacity:1;stroke:none;stroke-width:0.264583px;stroke-linecap:butt;stroke-linejoin:miter;stroke-opacity:1"
       d="m 169.70705,90.499773 c -113.138033,-60.333182 -56.56902,-30.166591 0,0 z m -68.48077,0 c 113.13803,-60.333182 56.56902,-30.166591 0,0 z"
       id="path857"
       inkscape:path-effect="#path-effect859"
       inkscape:original-d="m 169.70705,90.499773 c -113.138033,-60.333182 -56.56902,-30.166591 0,0 z"
       sodipodi:nodetypes="cc"
       inkscape:export-xdpi="96"
       inkscape:export-ydpi="96" />
    <path
       style="fill:#176155;fill-opacity:1;stroke:none;stroke-width:0.264583px;stroke-linecap:butt;stroke-linejoin:miter;stroke-opacity:1"
       d="m 212.5036,40.127565 -26.2349,72.212525 8.39948,23.99403 13.28126,-15.93955 z m -154.07387,0 26.2349,72.212525 -8.39948,23.99403 -13.28126,-15.93955 z"
       id="path862"
       inkscape:path-effect="#path-effect864"
       inkscape:original-d="m 212.5036,40.127565 -26.2349,72.212525 8.39948,23.99403 13.28126,-15.93955 z"
       sodipodi:nodetypes="ccccc" />
  </g>
</svg>
